<svg width="512" height="512" viewBox="0 0 512 512" fill="none" xmlns="http://www.w3.org/2000/svg">
<circle cx="256" cy="256" r="256" fill="#4285F4"/>
<path d="M255.547 84.6616C27.7394 93.6516 27.66 418.303 255.547 427.339C316.924 427.339 373.631 394.674 404.322 341.662C435.011 288.649 435.011 223.352 404.322 170.339C373.633 117.326 316.924 84.6616 255.547 84.6616ZM315.824 316.116C313.497 318.437 310.347 319.752 307.058 319.752C303.754 319.752 300.604 318.437 298.277 316.116L246.765 264.758C244.438 262.437 243.135 259.281 243.135 256.001V153.861C243.228 147.099 248.767 141.652 255.547 141.652C262.327 141.652 267.866 147.099 267.959 153.861V250.863L315.824 298.6V298.615C318.152 300.936 319.47 304.077 319.47 307.373C319.47 310.653 318.152 313.795 315.824 316.116Z" fill="white"/>
</svg>
